<svg xmlns="http://www.w3.org/2000/svg" viewBox="0 0 60 60">
  <path d="M13 0a5.5 5.5 0 0 0-5.5 6v49a5 5 0 0 0 5 5h40V0H13zM9.5 55V10a5 5 0 0 0 3 1v47a3 3 0 0 1-3-3zm41 3h-36V11h3v25.2a1.5 1.5 0 0 0 1.5 1.5h.2a1.4 1.4 0 0 0 .7-.3l.4-.4 4.2-7 4.2 7c.3.5 1 .8 1.6.7h.1c.7-.2 1.1-.8 1.1-1.5V11h19v47zM29.6 9.5l-.1.3-.1.2.1.2v24.1l-5-8.2-5 8.3V10.2L21.1 7H31l-1.3 2.5zm2.5-.5l2-4H20l-2 4h-4.7c-1.9 0-3.5-1.4-3.7-3.1 0-1 .2-2 1-2.7C11 2.4 12 2 13 2h37.5v1h-5a1 1 0 1 0 0 2h5v1h-4a1 1 0 1 0 0 2h4v1H32.1z"/>
</svg>
