<?xml version="1.0" encoding="utf-8"?>
<!-- Generator: Adobe Illustrator 22.0.0, SVG Export Plug-In . SVG Version: 6.00 Build 0)  -->
<svg version="1.1" id="Layer_1" xmlns="http://www.w3.org/2000/svg" xmlns:xlink="http://www.w3.org/1999/xlink" x="0px" y="0px"
	 viewBox="0 0 25 25" style="enable-background:new 0 0 25 25;" xml:space="preserve">

<path fill="#464646" stroke="#464646" stroke-width="0.25" d="M12.5,13.7c3.1,0,5.6-2.5,5.6-5.6s-2.5-5.6-5.6-5.6S6.9,5,6.9,8.1S9.4,13.7,12.5,13.7z M12.5,3.7
	c2.4,0,4.5,2,4.5,4.5s-2,4.5-4.5,4.5S8,10.6,8,8.1S10.1,3.7,12.5,3.7z M2.8,22.5h19.5c0.4,0,0.7-0.3,0.7-0.7c0-3.9-3.1-7-7-7H9.1
	c-3.9,0-7,3.2-7,7C2,22.2,2.4,22.5,2.8,22.5z M9.1,16.1h7.1c2.9,0,5.3,2.3,5.7,5.2H3.5C3.8,18.4,6.2,16.1,9.1,16.1z"/>
</svg>
