<?xml version="1.0" encoding="utf-8"?>
<!-- Generator: Adobe Illustrator 22.0.0, SVG Export Plug-In . SVG Version: 6.00 Build 0)  -->
<svg version="1.1" id="Layer_1" xmlns="http://www.w3.org/2000/svg" xmlns:xlink="http://www.w3.org/1999/xlink" x="0px" y="0px"
	 viewBox="0 0 25 25" style="enable-background:new 0 0 25 25;" xml:space="preserve">

<path fill="#464646" stroke="#464646" stroke-width="0.25" d="M20.7,3.1c-0.2-0.2-0.4-0.4-0.7-0.5l-0.6-0.1H5.6L5,2.6C4.7,2.7,4.5,2.9,4.3,3.1C4.1,3.4,4,3.7,4,4v17
	c0,0.3,0.1,0.6,0.3,0.8c0.2,0.2,0.4,0.4,0.7,0.5l0.6,0.1c0.4,0,0.8-0.1,1.1-0.4l5.8-5.6l5.8,5.6c0.3,0.3,0.6,0.4,1.1,0.4
	c0.2,0,0.4,0,0.6-0.1c0.3-0.1,0.5-0.3,0.7-0.5c0.2-0.3,0.3-0.6,0.3-0.8V4C21,3.7,20.9,3.4,20.7,3.1z M19.6,21.1l-5.9-5.7l-1.2-1.2
	l-1.2,1.2l-5.9,5.7V3.9h14.3V21.1z"/>
</svg>
