<svg id="Layer_1" xmlns="http://www.w3.org/2000/svg" viewBox="0 0 30 26.2">
  <style>
    .st0{fill:#3b3b3b}
  </style>
  <g id="Group_448" transform="translate(-322.723 -20.316)">
    <path id="Path_258" class="st0" d="M344.2 22.7c-.2-.2-.6-.2-.8 0-.1.1-.2.2-.2.4V26c-1.7 0-3.3.5-4.7 1.6-1.5 1.2-2.5 2.9-2.9 4.9-.2.9-.2 1.9-.1 2.8l.1.7c0 .3.3.5.6.5.2 0 .3-.1.4-.3l.4-.6c.9-1.6 2.3-2.9 4-3.5.7-.3 1.5-.4 2.2-.3v3c0 .3.2.6.5.6.1 0 .3-.1.4-.2l5.8-5.8c.2-.2.2-.6 0-.8l-5.7-5.9z"/>
    <path id="Path_259" class="st0" d="M348.2 38.7c-.3 0-.5.2-.5.5v2.3c0 .9-.7 1.7-1.7 1.6h-18c-.9 0-1.6-.7-1.7-1.6v-13c0-.9.7-1.6 1.7-1.6h3.8c.3 0 .6-.2.6-.6s-.2-.6-.6-.6H328c-1.5 0-2.7 1.2-2.8 2.7v13.1c0 1.5 1.2 2.8 2.8 2.8h18c1.5 0 2.7-1.2 2.8-2.8v-2.3c0-.2-.3-.5-.6-.5z"/>
  </g>
</svg>
