<svg id="Capa_1" xmlns="http://www.w3.org/2000/svg" viewBox="0 0 30 30">
  <path fill="#fff" d="M26.6 16.3c.6-.7.9-1.4.9-2.3 0-.8-.3-1.5-.9-2.1-.6-.6-1.3-.9-2.1-.9h-4.3l.1-.4.2-.3.2-.3.4-.9.3-.9.1-1.2v-.6l-.1-.7-.2-.8-.4-.7-.6-.6c-.2-.2-.6-.3-.9-.4L18 3a1 1 0 0 0-.7.3l-.5.8-.3.8-.2 1-.2.9-.3.8-.5.8-1.6 1.9-1.6 1.9c-.5.5-.9.8-1.1.8a1 1 0 0 0-.7.3 1 1 0 0 0-.3.7v10c0 .3.1.5.3.7.2.2.4.3.7.3.4 0 1.2.2 2.5.7l1.9.6 1.9.5a9 9 0 0 0 2.2.2h2.1c1.4 0 2.4-.4 3.1-1.2.6-.7.9-1.7.8-2.8.4-.4.7-.9.8-1.5.2-.6.2-1.2 0-1.8.5-.6.7-1.3.7-2.1l-.4-1.3zM8 13H3.5a1 1 0 0 0-.7.3 1 1 0 0 0-.3.7v10c0 .3.1.5.3.7.2.2.4.3.7.3H8c.3 0 .5-.1.7-.3.2-.2.3-.4.3-.7V14a1 1 0 0 0-.3-.7A1 1 0 0 0 8 13zm-1.8 9.7a1 1 0 0 1-.7.3 1 1 0 0 1-.7-.3 1 1 0 0 1-.3-.7c0-.3.1-.5.3-.7.2-.2.4-.3.7-.3.3 0 .5.1.7.3.2.2.3.4.3.7 0 .3-.1.5-.3.7z"/>
</svg>
