<svg xmlns="http://www.w3.org/2000/svg" viewBox="0 0 53 53">
  <path d="M18.6 41.6l-7.9 4.3c-.5.2-.9.5-1.3.9a26.4 26.4 0 0 0 34 0 7 7 0 0 0-1.3-.9l-8.5-4.2c-1-.6-1.8-1.7-1.8-2.9v-3.3l.8-1c1.2-1.7 2-3.5 2.7-5.4 1-.3 1.8-1.3 1.8-2.5v-3.5c0-.8-.3-1.5-.8-2V16s1-8-9.8-8-9.7 8-9.7 8V21c-.6.5-1 1.2-1 2v3.5c0 1 .6 1.8 1.3 2.2.9 3.9 3.2 6.7 3.2 6.7v3.2c0 1.2-.7 2.3-1.7 2.9z" fill="#e7eced"/>
  <path d="M27 0A26.5 26.5 0 0 0 9.4 46.8a7 7 0 0 1 1.3-1l8-4.2c1-.6 1.6-1.7 1.6-2.9v-3.2s-2.3-2.8-3.2-6.7a2.7 2.7 0 0 1-1.2-2.2v-3.5c0-.8.3-1.5.8-2V16s-1-8 9.8-8 9.7 8 9.7 8V21c.6.5 1 1.2 1 2v3.5c0 1.2-.9 2.2-2 2.5a19.5 19.5 0 0 1-3.4 6.4v3.3c0 1.2.7 2.3 1.8 2.9l8.5 4.2 1.4 1A26.4 26.4 0 0 0 27 0z" fill="#313131"/>
</svg>
