<?xml version="1.0" encoding="utf-8"?>
<!-- Generator: Adobe Illustrator 22.0.0, SVG Export Plug-In . SVG Version: 6.00 Build 0)  -->
<svg version="1.1" id="Layer_1" xmlns="http://www.w3.org/2000/svg" xmlns:xlink="http://www.w3.org/1999/xlink" x="0px" y="0px"
	 viewBox="0 0 25 25" style="enable-background:new 0 0 25 25;" xml:space="preserve">

<path fill="#464646" stroke="#464646" stroke-width="0.5" d="M22,20.7l-4.8-5c2.9-3.4,2.4-8.5-1.1-11.4S7.5,2,4.6,5.4S2.2,14,5.7,16.8c2.9,2.4,7,2.5,10,0.4l4.8,5
	c0.4,0.4,1.1,0.5,1.5,0.1l0,0C22.4,21.8,22.4,21.1,22,20.7z M10.9,3.7c3.8,0,6.9,3,6.9,6.8s-3.1,6.8-6.9,6.8S4,14.2,4,10.5
	S7.1,3.7,10.9,3.7z"/>
</svg>
